<?xml version="1.0" encoding="utf-8"?>
<!-- Generator: Adobe Illustrator 16.0.3, SVG Export Plug-In . SVG Version: 6.00 Build 0)  -->
<!DOCTYPE svg PUBLIC "-//W3C//DTD SVG 1.1//EN" "http://www.w3.org/Graphics/SVG/1.1/DTD/svg11.dtd">
<svg version="1.1" id="Layer_1" xmlns="http://www.w3.org/2000/svg" xmlns:xlink="http://www.w3.org/1999/xlink" x="0px" y="0px"
	 width="76.945px" height="73.528px" viewBox="0 0 76.945 73.528" enable-background="new 0 0 76.945 73.528" xml:space="preserve">
<rect opacity="0.3" fill="#495629" width="76.945" height="73.528"/>
<g>
	<g>
		<polygon opacity="0.2" fill="#020304" enable-background="new    " points="64.908,27.77 60.871,27.636 45.478,52.206 
			18.055,52.206 16.037,55.133 48.171,55.133 		"/>
		<rect x="14.874" y="45.139" fill="none" stroke="#FFFFFF" stroke-width="0.25" width="30.563" height="7.093"/>
		<polyline fill="none" stroke="#FFFFFF" stroke-width="0.25" points="45.436,52.231 62.608,24.868 62.608,17.773 		"/>
		<polyline fill="#FFFFFF" stroke="#FFFFFF" stroke-width="0.5" points="45.226,45.139 62.291,18.017 32.437,18.017 15.005,45.139 
					"/>
		<g opacity="0.3">
			<line fill="none" x1="44.242" y1="20.632" x2="33.054" y2="38.503"/>
			<path fill="#495629" d="M44.242,20.632c0,0-0.652,1.148-1.625,2.87c-0.99,1.712-2.367,3.958-3.75,6.201
				c-1.412,2.224-2.832,4.444-3.939,6.085c-1.122,1.629-1.871,2.714-1.871,2.714s0.65-1.148,1.625-2.868
				c0.988-1.712,2.368-3.962,3.749-6.203c1.414-2.224,2.833-4.445,3.94-6.083C43.492,21.718,44.242,20.632,44.242,20.632z"/>
		</g>
		<g opacity="0.3">
			<line fill="none" x1="30.953" y1="30.292" x2="24.052" y2="41.452"/>
			<path fill="#495629" d="M30.953,30.292c0,0-0.367,0.736-0.955,1.82c-0.59,1.081-1.432,2.489-2.278,3.895
				c-0.875,1.384-1.761,2.766-2.464,3.774c-0.706,1.01-1.2,1.668-1.2,1.668s0.366-0.736,0.956-1.818
				c0.587-1.083,1.427-2.492,2.277-3.895c0.877-1.384,1.758-2.766,2.467-3.774C30.455,30.952,30.953,30.292,30.953,30.292z"/>
		</g>
		<g opacity="0.3">
			<line fill="none" x1="49.141" y1="25.891" x2="42.217" y2="37.264"/>
			<path fill="#495629" d="M49.141,25.891c0,0-0.369,0.749-0.96,1.85c-0.589,1.104-1.434,2.538-2.285,3.971
				c-0.88,1.412-1.768,2.821-2.475,3.852c-0.709,1.03-1.204,1.702-1.204,1.702s0.368-0.75,0.956-1.853
				c0.59-1.103,1.435-2.537,2.285-3.969c0.881-1.412,1.768-2.819,2.477-3.852C48.644,26.561,49.141,25.891,49.141,25.891z"/>
		</g>
	</g>
	<polygon fill="#FFFFFF" points="14.874,45.189 45.436,52.142 14.874,52.181 	"/>
	<polygon fill="#FFFFFF" points="62.608,17.892 45.679,51.721 62.608,24.868 	"/>
</g>
<rect id="_x3C_Slice_x3E_" x="-0.454" y="-5.499" fill="none" width="81.75" height="81.938"/>
</svg>
