<?xml version="1.0" encoding="utf-8"?>
<!-- Generator: Adobe Illustrator 16.0.3, SVG Export Plug-In . SVG Version: 6.00 Build 0)  -->
<!DOCTYPE svg PUBLIC "-//W3C//DTD SVG 1.1//EN" "http://www.w3.org/Graphics/SVG/1.1/DTD/svg11.dtd">
<svg version="1.1" id="Layer_1" xmlns="http://www.w3.org/2000/svg" xmlns:xlink="http://www.w3.org/1999/xlink" x="0px" y="0px"
	 width="76.946px" height="73.528px" viewBox="0 0 76.946 73.528" enable-background="new 0 0 76.946 73.528" xml:space="preserve">
<rect opacity="0.3" fill="#495629" width="76.946" height="73.528"/>
<g>
	<g opacity="0.2">
		<path fill="#1F1F1D" d="M46.713,23.484c0.486,1.036,1.578,4.826,1.234,5.342c-3.66,5.507-21.857,10.618-28.297,6.37
			c-0.301-0.191-0.943-2.526-1.178-5.113c0.65,2.833,7.504,3.648,15.303,1.828C41.572,30.088,47.367,26.319,46.713,23.484z"/>
		<path fill="none" stroke="#1F1F1D" stroke-width="0.75" stroke-miterlimit="10" d="M18.49,29.169v0.02
			c-0.082,0.308-0.082,0.615-0.02,0.901c0.652,2.833,7.496,3.651,15.301,1.827c6.439-1.499,11.494-4.329,12.715-6.873
			c0.264-0.533,0.348-1.065,0.225-1.559c-0.123-0.512-0.449-0.963-0.936-1.332c-0.105-0.083-0.07,0.024-0.191-0.058"/>
	</g>
	<g opacity="0.2">
		<path fill="#1F1F1D" d="M62.188,45.42c0.104,1.139-0.197,5.063-0.701,5.424c-5.389,3.854-24.399,2.201-29.014-4.032
			c-0.211-0.291-0.01-2.702,0.672-5.2c-0.373,2.881,5.826,6.063,13.85,7.111C55.018,49.778,61.815,48.302,62.188,45.42z"/>
		<path fill="none" stroke="#1F1F1D" stroke-width="0.75" stroke-miterlimit="10" d="M33.232,41.269
			c-0.043,0.124-0.063,0.226-0.082,0.349c-0.367,2.872,5.816,6.052,13.85,7.097c6.449,0.86,12.125,0.062,14.28-1.785
			c0.531-0.451,0.742-0.938,0.822-1.491c0.082-0.615,0.043-1.178-0.447-1.793c-0.061-0.082-0.043-0.067-0.104-0.129"/>
	</g>
	<g>
		<path fill="#FFFFFF" d="M45.605,21.173c0.471,1.09,1.494,5.042,1.129,5.565c-3.9,5.578-22.719,10.283-29.223,5.685
			c-0.303-0.212-0.904-2.649-1.082-5.333c0.6,2.957,7.617,4.018,15.676,2.386C40.156,27.842,46.201,24.13,45.605,21.173z"/>
		
			<ellipse transform="matrix(-0.9801 0.1986 -0.1986 -0.9801 66.2486 41.643)" fill="none" stroke="#FFFFFF" stroke-width="0.5" stroke-miterlimit="10" cx="31.036" cy="24.144" rx="14.883" ry="5.452"/>
	</g>
	<g>
		<path fill="#FFFFFF" d="M61.795,42.771c0.102,1.185-0.215,5.256-0.727,5.632c-5.5,4.022-24.829,2.38-29.495-4.069
			c-0.213-0.299,0-2.804,0.703-5.396c-0.387,2.991,5.904,6.266,14.059,7.325C54.486,47.325,61.409,45.764,61.795,42.771z"/>
		
			<ellipse transform="matrix(-0.9917 -0.1289 0.1289 -0.9917 88.5203 87.3866)" fill="none" stroke="#FFFFFF" stroke-width="0.5" stroke-miterlimit="10" cx="47.088" cy="40.829" rx="14.886" ry="5.452"/>
	</g>
</g>
<rect id="_x3C_Slice_x3E__3_" x="-3.672" y="-2.966" fill="none" width="81.274" height="81.404"/>
</svg>
