<?xml version="1.0" encoding="utf-8"?>
<!-- Generator: Adobe Illustrator 16.0.3, SVG Export Plug-In . SVG Version: 6.00 Build 0)  -->
<!DOCTYPE svg PUBLIC "-//W3C//DTD SVG 1.1//EN" "http://www.w3.org/Graphics/SVG/1.1/DTD/svg11.dtd">
<svg version="1.1" id="Layer_1" xmlns="http://www.w3.org/2000/svg" xmlns:xlink="http://www.w3.org/1999/xlink" x="0px" y="0px"
	 width="76.945px" height="73.528px" viewBox="0 0 76.945 73.528" enable-background="new 0 0 76.945 73.528" xml:space="preserve">
<rect opacity="0.3" fill="#495629" width="76.945" height="73.528"/>
<g>
	<g opacity="0.2">
		<polygon fill="#1F1F1D" stroke="#1F1F1D" stroke-width="0.5" points="46.242,34.291 36.675,34.66 42.6,21.039 50.506,24.479 		"/>
		<polygon fill="#1F1F1D" stroke="#1F1F1D" stroke-width="0.5" points="52.003,22.602 42.951,18.668 41.319,13.951 56.572,20.582 		
			"/>
		<polygon fill="#1F1F1D" stroke="#1F1F1D" stroke-width="0.5" points="35.262,59.539 29.699,61.526 27.941,56.081 36.875,55.826 		
			"/>
		<polygon fill="#1F1F1D" stroke="#1F1F1D" stroke-width="0.5" points="43.425,40.761 33.866,41.13 35.534,37.284 45.099,36.916 		
			"/>
		<polygon fill="#1F1F1D" stroke="#1F1F1D" stroke-width="0.5" points="40.641,47.173 31.075,47.54 32.748,43.699 42.309,43.332 		
			"/>
		<polygon fill="#1F1F1D" stroke="#1F1F1D" stroke-width="0.5" points="37.867,53.546 28.302,53.914 29.973,50.075 39.54,49.703 		
			"/>
	</g>
	<g>
		<polygon fill="#FFFFFF" stroke="#FFFFFF" stroke-width="0.5" points="43.77,31.873 34.206,32.24 40.128,18.623 48.037,22.061 		
			"/>
		<polygon fill="#FFFFFF" stroke="#FFFFFF" stroke-width="0.5" points="49.533,20.184 40.479,16.249 38.848,11.534 54.099,18.164 		
			"/>
		<polygon fill="#FFFFFF" stroke="#FFFFFF" stroke-width="0.5" points="32.792,57.121 27.229,59.106 25.468,53.664 34.405,53.41 		
			"/>
		<polygon fill="#FFFFFF" stroke="#FFFFFF" stroke-width="0.5" points="40.954,38.341 31.393,38.714 33.061,34.868 42.627,34.497 		
			"/>
		<polygon fill="#FFFFFF" stroke="#FFFFFF" stroke-width="0.5" points="38.169,44.753 28.603,45.124 30.278,41.282 39.837,40.909 		
			"/>
		<polygon fill="#FFFFFF" stroke="#FFFFFF" stroke-width="0.5" points="35.395,51.129 25.833,51.496 27.503,47.653 37.069,47.285 		
			"/>
	</g>
</g>
<rect id="_x3C_Slice_x3E__2_" x="-2.93" y="-4.12" fill="none" width="81.273" height="81.529"/>
<rect id="_x3C_Slice_x3E__6_" x="-2.469" y="-4.999" fill="none" width="80.813" height="81.938"/>
</svg>
